# xmcd
#
# Track frame offsets: 
#        150
#        12337
#        24261
#        37608
#        51566
#        68151
#        81951
#        95601
#        107133
#        124121
#        137497
#        151877
#        164383
#        178454
#        190577
#        201440
#        213063
#        224793
#        236486
#        250309
#        262905
#        274976
#        288761
#        301197
#        313330
#
# Disc length: 4334 seconds
#
# Revision: 0
# Processed by: cddbd v1.5.2PL0 Copyright (c) Steve Scherf et al.
# Submitted via: ExactAudioCopy v1.0b3
#
DISCID=6a10ec19
DTITLE=Various Artist - A Bad Case Of The Blues
DYEAR=2011
DGENRE=Blues
TTITLE0=Otis Spann - It Must Have Been The Devil
TTITLE1=Robert Lockwood Jr. - (I'm Gonna) Dig Myself A Hole
TTITLE2=Sunnylands Slim - Brown Skinned Woman
TTITLE3=Muddy Waters - Close To You
TTITLE4=Champion Jack Dupree - T.B. Blues
TTITLE5=John Lee Hooker - Apologize
TTITLE6=B.B. King - Blind Love
TTITLE7=Howlin' Wolf - Sitting On The Top Of The World
TTITLE8=T-Bone Walker - T-Bone Blues
TTITLE9=Floyd Dixon - Call Operator 211
TTITLE10=Johnny Fuller - Hard Times
TTITLE11=Jimmy Reed - Little Rain
TTITLE12=Pee Wee Crayton - The Telephone Is Ringing
TTITLE13=Elmore James - Make My Dreams Come True
TTITLE14=Roosevelt Sykes - Sweet Old Chicaco
TTITLE15=Guitar Slim - Feelin' Sad
TTITLE16=Jimmy Witherspoon - Fast Women And Sloe Gin
TTITLE17=Sonny Boy Williamson - Don't Start Me Talkin'
TTITLE18=John Lee Hooker - I Don't Want Your Money
TTITLE19=Jimmy Rogers - Walkin' By Myself
TTITLE20=Muddy Waters - Long Distance Call
TTITLE21=Sunnyland Slim - Highway 61
TTITLE22=Magic Sam - Easy Baby
TTITLE23=Lightnin’ Hopkins - Coffee Blues
TTITLE24=Lowell Fulson - Blues Never Fail
EXTD=
EXTT0=
EXTT1=
EXTT2=
EXTT3=
EXTT4=
EXTT5=
EXTT6=
EXTT7=
EXTT8=
EXTT9=
EXTT10=
EXTT11=
EXTT12=
EXTT13=
EXTT14=
EXTT15=
EXTT16=
EXTT17=
EXTT18=
EXTT19=
EXTT20=
EXTT21=
EXTT22=
EXTT23=
EXTT24=
PLAYORDER=
